<svg xmlns="http://www.w3.org/2000/svg">
<symbol id="development" viewBox="0 0 24 24" fill="none" stroke="currentColor" stroke-width="1.65" stroke-linecap="round" stroke-linejoin="round"><path d="m8.5 7.5-4.5 4.5 4.5 4.5M15.5 7.5 20 12l-4.5 4.5M14 4.5l-4 15"/></symbol>
<symbol id="voip" viewBox="0 0 24 24" fill="none" stroke="currentColor" stroke-width="1.65" stroke-linecap="round"><circle cx="12" cy="12" r="2.25"/><path d="M7.9 7.9a5.8 5.8 0 0 0 0 8.2M16.1 7.9a5.8 5.8 0 0 1 0 8.2M5.1 5.1a9.75 9.75 0 0 0 0 13.8M18.9 5.1a9.75 9.75 0 0 1 0 13.8"/></symbol>
<symbol id="arts" viewBox="0 0 24 24" fill="none" stroke="currentColor" stroke-width="1.65" stroke-linecap="round" stroke-linejoin="round"><path d="M12 3.5 20.5 12 12 20.5 3.5 12 12 3.5Z"/><path d="m8.5 15.5 7-7M8.5 8.5h7v7"/></symbol>
<symbol id="marketing" viewBox="0 0 24 24" fill="none" stroke="currentColor" stroke-width="1.65" stroke-linecap="round" stroke-linejoin="round"><path d="m4 17 5.1-5.1 3.4 3.4L20 7.8M14.5 7.8H20v5.5M4 20h16"/></symbol>
<symbol id="capability" viewBox="0 0 24 24" fill="none" stroke="currentColor" stroke-width="1.65" stroke-linecap="round" stroke-linejoin="round"><path d="m12 3.5 7.4 4.25v8.5L12 20.5l-7.4-4.25v-8.5L12 3.5Z"/><path d="m8.5 12 2.2 2.2 4.8-4.8"/></symbol>
<symbol id="career" viewBox="0 0 24 24" fill="none" stroke="currentColor" stroke-width="1.65" stroke-linecap="round" stroke-linejoin="round"><path d="M6 18 18 6M9 6h9v9M6 8.5V18h9.5"/></symbol>
<symbol id="capability-1" viewBox="0 0 24 24" fill="none" stroke="currentColor" stroke-width="1.65" stroke-linecap="round" stroke-linejoin="round"><path d="m13 2-8 12h7l-1 8 8-12h-7l1-8Z"/></symbol>
<symbol id="capability-2" viewBox="0 0 24 24" fill="none" stroke="currentColor" stroke-width="1.65" stroke-linecap="round" stroke-linejoin="round"><rect x="6" y="6" width="12" height="12" rx="2"/><rect x="9" y="9" width="6" height="6"/><path d="M9 2v4m6-4v4M9 18v4m6-4v4M2 9h4m-4 6h4m12-6h4m-4 6h4"/></symbol>
<symbol id="capability-3" viewBox="0 0 24 24" fill="none" stroke="currentColor" stroke-width="1.65" stroke-linecap="round" stroke-linejoin="round"><path d="M6.5 18h10.8a4.2 4.2 0 0 0 .5-8.37A6.2 6.2 0 0 0 6.3 8.1 4.95 4.95 0 0 0 6.5 18Z"/></symbol>
<symbol id="capability-4" viewBox="0 0 24 24" fill="none" stroke="currentColor" stroke-width="1.65" stroke-linecap="round" stroke-linejoin="round"><path d="m8.5 7-5 5 5 5M15.5 7l5 5-5 5"/></symbol>
<symbol id="info-about" viewBox="0 0 24 24" fill="none" stroke="currentColor" stroke-width="1.65" stroke-linecap="round" stroke-linejoin="round"><circle cx="12" cy="8" r="3"/><path d="M5.5 20a6.5 6.5 0 0 1 13 0M19 5v4m-2-2h4"/></symbol>
<symbol id="info-legal" viewBox="0 0 24 24" fill="none" stroke="currentColor" stroke-width="1.65" stroke-linecap="round" stroke-linejoin="round"><path d="M12 3v18M6 6h12M7 6l-4 7h8L7 6Zm10 0-4 7h8l-4-7ZM8 21h8"/></symbol>
<symbol id="info-support" viewBox="0 0 24 24" fill="none" stroke="currentColor" stroke-width="1.65" stroke-linecap="round" stroke-linejoin="round"><path d="M4 13v-2a8 8 0 0 1 16 0v2M4 13h3v6H5a2 2 0 0 1-2-2v-2a2 2 0 0 1 1-2Zm16 0h-3v6h2a2 2 0 0 0 2-2v-2a2 2 0 0 0-1-2ZM17 19c-1 2-3 2-5 2"/></symbol>
<symbol id="info-contact" viewBox="0 0 24 24" fill="none" stroke="currentColor" stroke-width="1.65" stroke-linecap="round" stroke-linejoin="round"><path d="M3.5 6.5h17v12h-17zM4 7l8 6 8-6"/><path d="m4 18 5.5-7m10.5 7-5.5-7"/></symbol>
</svg>
